<?xml version="1.0" encoding="utf-8"?>
<!-- Generator: Adobe Illustrator 24.1.2, SVG Export Plug-In . SVG Version: 6.00 Build 0)  -->
<svg version="1.1" id="Layer_1" xmlns="http://www.w3.org/2000/svg" xmlns:xlink="http://www.w3.org/1999/xlink" x="0px" y="0px"
	 viewBox="0 0 16 16" style="enable-background:new 0 0 16 16;" xml:space="preserve">
<style type="text/css">
	.st0{fill-rule:evenodd;clip-rule:evenodd;fill:#DB5860;}
</style>
<path class="st0" d="M7,2h2c0.6,0,1,0.4,1,1H6C6,2.4,6.4,2,7,2z M5,3c0-1.1,0.9-2,2-2h2c1.1,0,2,0.9,2,2h2c0.6,0,1,0.4,1,1v1v1h-1v7
	c0,1.1-0.9,2-2,2H5c-1.1,0-2-0.9-2-2V6H2V5V4c0-0.6,0.4-1,1-1H5z M11,4h-1H6H5H3v1h1h8h1V4H11z M4,6h8v7c0,0.6-0.4,1-1,1H5
	c-0.6,0-1-0.4-1-1V6z M6.5,7C6.2,7,6,7.2,6,7.5v4C6,11.8,6.2,12,6.5,12S7,11.8,7,11.5v-4C7,7.2,6.8,7,6.5,7z M9,7.5
	C9,7.2,9.2,7,9.5,7S10,7.2,10,7.5v4c0,0.3-0.2,0.5-0.5,0.5S9,11.8,9,11.5V7.5z"/>
</svg>
